Coordinates
version=1
nRows=15
nColumns=19
inDegrees=yes

Units are S.I. units (second, meters, Newtons, ...)
If the header above contains a line with 'inDegrees', this indicates whether rotational values are in degrees (yes) or radians (no).

endheader
time	pelvis_tilt	pelvis_list	pelvis_rotation	pelvis_tx	pelvis_ty	pelvis_tz	hip_flexion_r	hip_adduction_r	hip_rotation_r	knee_angle_r	knee_angle_r_beta	ankle_angle_r	hip_flexion_l	hip_adduction_l	hip_rotation_l	knee_angle_l	knee_angle_l_beta	ankle_angle_l
     12.46666667	      7.20574487	     -5.73155645	      0.10239777	      1.94110346	      0.86606306	      0.99918455	     21.99566624	      9.21642598	     -7.72010532	     23.10383076	      0.40323792	     -7.30409341	    -18.85692540	    -12.27147219	    -12.71316258	     75.66001396	      1.32051636	    -15.84724175
     12.47333333	      7.38379204	     -6.06580784	     -0.93653753	      1.94036395	      0.86358406	      1.00037903	     20.93034602	      9.89459699	     -8.43021129	     24.62579798	      0.42980126	     -6.02161252	    -16.82546278	    -12.72425768	    -12.83597769	     80.68139862	      1.40815605	    -15.31272650
     12.48000000	      7.34941726	     -6.33986406	     -2.07318815	      1.93940520	      0.86060638	      1.00144513	     20.13708719	     10.45689555	     -8.87921356	     26.66524297	      0.46539629	     -4.14310133	    -14.45372465	    -13.13326316	    -13.00315055	     85.45824755	      1.49152779	    -14.86630494
     12.48666667	      7.19194049	     -6.58780434	     -3.25025329	      1.93823844	      0.85734348	      1.00231771	     19.41475173	     10.97486386	     -8.92118310	     28.92165982	      0.50477819	     -1.75163921	    -11.84269522	    -13.58831077	    -13.18907335	     89.92616338	      1.56950763	    -14.41610282
     12.49333333	      6.92155642	     -6.82860076	     -4.45370050	      1.93683440	      0.85388219	      1.00306780	     18.73473336	     11.49210465	     -8.55188824	     31.26606373	      0.54569576	      0.99966065	     -8.98273837	    -14.12551925	    -13.35456839	     94.08596734	      1.64210991	    -13.92789126
     12.50000000	      7.38428778	     -7.28271562	     -5.49015130	      1.93527238	      0.85128784	      1.00354021	     16.97196022	     12.17279737	     -7.84615395	     33.25856051	      0.58047139	      4.08173775	     -6.89862931	    -14.95037311	    -13.48595281	     97.71010292	      1.70536301	    -13.44343995
     12.50666667	      6.23572966	     -7.33325188	     -6.76088623	      1.93337286	      0.84707735	      1.00425713	     17.15737740	     12.57643811	     -6.74942681	     35.67562525	      0.62265712	      7.03559313	     -2.68827855	    -15.54864305	    -13.39556566	    101.31931121	      1.76835558	    -12.76875393
     12.51333333	      5.83099226	     -7.54654041	     -7.71091671	      1.93127043	      0.84407095	      1.00460817	     16.23532717	     13.03030610	     -5.56266135	     37.55169143	      0.65540066	     10.03282758	      0.85459548	    -16.31168504	    -13.01479028	    104.35305323	      1.82130436	    -12.19748545
     12.52000000	      5.54868999	     -7.87301360	     -8.55664002	      1.92909848	      0.84158880	      1.00491863	     14.96918771	     13.54530844	     -4.26010005	     39.07288145	      0.68195043	     12.80330428	      4.37087583	    -17.24578152	    -12.45396772	    106.92407838	      1.86617722	    -11.53651492
     12.52666667	      5.99526872	     -8.18986278	     -9.19038489	      1.92692807	      0.84047480	      1.00500926	     12.66233123	     13.84047708	     -2.89345944	     40.14476897	      0.70065840	     15.37456534	      7.15128203	    -17.98562536	    -11.73617182	    108.81774508	      1.89922794	    -10.92258897
     12.53333333	      5.29792030	     -8.52702165	     -9.63066478	      1.92485375	      0.83862051	      1.00513827	     11.49470308	     14.22651080	     -1.81314161	     40.93594992	      0.71446711	     17.40244212	     11.54553915	    -18.91614092	    -10.42103490	    110.53615724	      1.92921989	    -10.26656708
     12.54000000	      5.71288823	     -8.66998099	    -10.10599331	      1.92278929	      0.83863530	      1.00529777	      8.90594858	     14.17724606	     -0.38307774	     41.34755132	      0.72165091	     19.11035580	     14.50794648	    -19.32560850	     -9.46121186	    111.37175734	      1.94380386	     -9.70509346
     12.54666667	      5.76156183	     -9.21343594	    -10.04412127	      1.92142184	      0.83883654	      1.00525164	      6.27509798	     14.45025757	      0.36619329	     40.89572030	      0.71376497	     20.23380137	     18.05926466	    -20.13449948	     -7.74589556	    111.86820550	      1.95246851	     -9.10902215
     12.55333333	      5.98586488	     -9.44930250	    -10.01989202	      1.92016347	      0.83975331	      1.00534422	      3.36931983	     14.33415856	      1.23707636	     40.20696119	      0.70174386	     20.86520060	     21.27581185	    -20.39956688	     -6.24423321	    111.72313960	      1.94993664	     -8.61437943
     12.56000000	      6.32130386	     -9.62697220	     -9.89378884	      1.91932871	      0.84126968	      1.00555828	      0.10954244	     14.09694959	      2.01907417	     39.01599857	      0.68095764	     20.93877357	     24.17023123	    -20.47754582	     -4.81796387	    111.01181641	      1.93752170	     -8.13069862
